<svg width="700" height="700" viewBox="0 0 700 700" fill="none" xmlns="http://www.w3.org/2000/svg">
<g clip-path="url(#clip0)">
<path fill-rule="evenodd" clip-rule="evenodd" d="M189 330.86V330.86L189 330.86L189 330.86ZM271.625 426.267V469.063L189 516.767V378.564L189 378.564L271.625 426.267Z" fill="#FB5A4F"/>
<path d="M428.375 283.156L350 328.406V423.814L511 330.86V144.953L428.375 192.657V283.156Z" fill="#E45045"/>
<path fill-rule="evenodd" clip-rule="evenodd" d="M271.625 192.657V283.156L312.938 307.008L350 328.406V423.814L312.938 402.416L271.625 378.564L189 330.86V144.953L271.625 192.657L271.625 192.657Z" fill="#FB5A4F"/>
<path fill-rule="evenodd" clip-rule="evenodd" d="M469.687 121.102L350 52L230.313 121.102L312.938 168.805L350 147.407L387.062 168.805L469.687 121.102Z" fill="#FF7D74"/>
<path d="M217.949 605.271L206.76 611.731L200.695 611.189V634.465L188.993 641.222V571.687L198.645 566.114L200.695 568.975L206.76 561.429L217.949 554.969L227.858 555.857V592.942L217.949 605.271ZM200.695 576.471V603.693L216.156 594.767V567.544L200.695 576.471ZM267.104 538.623L252.412 547.105V584.88L240.71 591.637V542.321L250.362 536.749L252.412 539.609L258.477 532.064L267.104 527.083V538.623ZM287.363 515.386V564.702L275.661 571.458V522.142L287.363 515.386ZM275.234 513.216V499.704L287.79 492.455V505.967L275.234 513.216ZM329.141 541.074L317.952 547.534L311.887 546.992V570.269L300.185 577.025V507.49L309.837 501.918L311.887 504.778L317.952 497.233L329.141 490.772L339.05 491.66V528.745L329.141 541.074ZM311.887 512.274V539.496L327.348 530.57V503.348L311.887 512.274ZM376.331 475.56L361.64 484.042V521.818L349.938 528.574V479.259L359.59 473.686L361.64 476.547L367.704 469.001L376.331 464.02V475.56ZM394.882 483.195V491.776L406.926 484.823V476.242L394.882 483.195ZM393.088 504.154L383.18 503.267V486.204L393.088 473.875L406.926 465.886V457.897L387.451 469.14V457.601L408.72 445.321L418.628 446.209V489.409L412.99 492.664L406.926 492.121L400.861 499.667L393.088 504.154ZM438.011 428.41L447.834 455.089L448.005 454.991L457.913 416.919L469.615 410.163L453.813 468.602L442.111 475.358L426.309 435.166L438.011 428.41ZM487.306 429.835V438.415L499.349 431.462V422.881L487.306 429.835ZM485.512 450.794L475.603 449.906V432.843L485.512 420.514L499.349 412.525V404.536L479.874 415.78V404.24L501.143 391.96L511.051 392.848V436.048L505.414 439.303L499.349 438.761L493.285 446.306L485.512 450.794Z" fill="#E45045"/>
</g>
<defs>
<clipPath id="clip0">
<path d="M189 52H511V640.883H189V52Z" fill="white"/>
</clipPath>
</defs>
</svg>
